<svg width="22" height="23" viewBox="0 0 22 23" fill="none" xmlns="http://www.w3.org/2000/svg">
<mask id="mask0_3097_21192" style="mask-type:alpha" maskUnits="userSpaceOnUse" x="0" y="0" width="22" height="23">
<path fill-rule="evenodd" clip-rule="evenodd" d="M0.364258 0.890015H21.8573V22.3838H0.364258V0.890015Z" fill="white"/>
</mask>
<g mask="url(#mask0_3097_21192)">
<path fill-rule="evenodd" clip-rule="evenodd" d="M5.47269 19.565C6.05269 19.565 6.59969 19.785 7.17869 20.018C10.7257 21.658 14.9207 20.912 17.6537 18.18C21.2597 14.572 21.2597 8.70301 17.6537 5.09701C15.9077 3.35101 13.5857 2.39001 11.1137 2.39001C8.64069 2.39001 6.31769 3.35201 4.57269 5.09801C1.83869 7.83001 1.09469 12.025 2.71969 15.538C2.95369 16.117 3.1797 16.681 3.1797 17.267C3.1797 17.852 2.97869 18.441 2.80169 18.961C2.65569 19.389 2.43469 20.035 2.57669 20.177C2.71569 20.321 3.3657 20.094 3.7947 19.947C4.3097 19.771 4.89369 19.569 5.47269 19.565V19.565ZM11.0887 22.384C9.56069 22.384 8.02269 22.061 6.58369 21.395C6.15969 21.225 5.76269 21.065 5.47769 21.065C5.14969 21.067 4.7087 21.219 4.2827 21.366C3.4087 21.666 2.32069 22.04 1.51569 21.238C0.713695 20.435 1.08369 19.35 1.38169 18.477C1.52869 18.047 1.6797 17.603 1.6797 17.267C1.6797 16.991 1.54669 16.639 1.34269 16.132C-0.530305 12.087 0.335695 7.21201 3.5127 4.03701C5.5407 2.00801 8.23969 0.890015 11.1127 0.890015C13.9857 0.890015 16.6857 2.00701 18.7137 4.03601C22.9057 8.22801 22.9057 15.048 18.7137 19.24C16.6587 21.296 13.8917 22.384 11.0887 22.384V22.384Z" fill="white"/>
</g>
<path fill-rule="evenodd" clip-rule="evenodd" d="M15.0606 13.0527C14.5086 13.0527 14.0566 12.6057 14.0566 12.0527C14.0566 11.4997 14.4996 11.0527 15.0516 11.0527H15.0606C15.6126 11.0527 16.0606 11.4997 16.0606 12.0527C16.0606 12.6057 15.6126 13.0527 15.0606 13.0527" fill="white"/>
<path fill-rule="evenodd" clip-rule="evenodd" d="M11.0519 13.0527C10.4999 13.0527 10.0479 12.6057 10.0479 12.0527C10.0479 11.4997 10.4899 11.0527 11.0429 11.0527H11.0519C11.6039 11.0527 12.0519 11.4997 12.0519 12.0527C12.0519 12.6057 11.6039 13.0527 11.0519 13.0527" fill="white"/>
<path fill-rule="evenodd" clip-rule="evenodd" d="M7.04209 13.0527C6.49009 13.0527 6.03809 12.6057 6.03809 12.0527C6.03809 11.4997 6.48109 11.0527 7.03309 11.0527H7.04209C7.59409 11.0527 8.04209 11.4997 8.04209 12.0527C8.04209 12.6057 7.59409 13.0527 7.04209 13.0527" fill="white"/>
</svg>
