<svg width="175" height="227" viewBox="0 0 175 227" fill="none" xmlns="http://www.w3.org/2000/svg">
<circle cx="80.2155" cy="124.39" r="76.6795" stroke="#C6FF00" stroke-width="6.23411"/>
<circle cx="80.2175" cy="204.186" r="18.7023" fill="#C6FF00" stroke="#312244" stroke-width="6.23411"/>
<path d="M77.1723 197.266V195.196H81.8603V213.225H79.5662V197.266H77.1723Z" fill="#342145"/>
<g clip-path="url(#clip0_3459_30350)">
<path d="M152.941 35.967C154.428 36.1759 155.856 35.6299 156.545 34.4368C157.005 33.6397 157.068 32.6564 156.719 31.7033C156.369 30.7502 155.637 29.9054 154.683 29.3546C153.73 28.8039 152.632 28.5923 151.632 28.7665C150.632 28.9407 149.812 29.4864 149.351 30.2835C148.653 31.4932 148.909 33.0229 149.863 34.2121C144.722 39.8311 139.771 43.3635 131.052 39.695C131.052 39.695 127.961 50.1033 138.198 56.0137C148.435 61.9241 154.7 53.4693 154.7 53.4693C146.19 49.0293 150.525 39.9007 152.941 35.967V35.967Z" fill="#F2994A"/>
<path d="M123.404 18.9143C122.48 17.7311 122.239 16.2211 122.928 15.0279C123.388 14.2308 124.208 13.6851 125.208 13.5109C126.208 13.3367 127.306 13.5482 128.26 14.099C129.214 14.6497 129.946 15.4946 130.295 16.4477C130.644 17.4008 130.581 18.384 130.121 19.1812C129.423 20.3908 127.97 20.9336 126.463 20.7022C124.168 27.9642 123.584 34.0183 131.12 39.7345C131.12 39.7345 123.652 47.6155 113.415 41.7051C103.178 35.7947 107.37 26.1488 107.37 26.1488C115.468 31.292 121.206 22.9735 123.404 18.9143V18.9143Z" fill="#F2994A"/>
<path d="M138.059 55.9337C138.104 55.9594 138.146 55.9892 138.19 56.0149C141.011 57.6437 143.529 58.1779 145.694 58.1015L138.059 55.9337Z" fill="#C6FF00"/>
<path d="M166.334 40.9744C164.796 39.8387 162.469 40.2403 161.148 41.8667C160.324 42.8828 160.082 44.1356 160.39 45.2107L156.833 48.634C156.833 48.634 149.415 57.2933 139.149 53.9204C130.943 51.2246 134.757 38.4921 136.112 34.6616C137.839 34.888 139.493 34.247 140.297 32.8557C141.424 30.9029 140.445 28.2292 138.108 26.8799C135.771 25.5307 132.966 26.0194 131.838 27.9722C131.03 29.3718 131.31 31.1462 132.399 32.5346C129.919 35.6551 121.424 45.1892 114.172 39.4939C106.813 33.7096 109.829 20.3957 110.792 16.8562C112.137 16.7519 113.348 15.8986 113.873 14.5336C114.623 12.5722 113.667 10.3028 111.742 9.46113C109.817 8.61941 107.652 9.52751 106.904 11.4847C106.358 12.9092 106.719 14.4988 107.693 15.5842L95.1398 51.8403C95.1398 51.8403 98.5335 58.6273 114.467 67.8266C130.401 77.0259 137.976 76.5715 137.976 76.5715L163.163 47.4941C164.438 47.6358 165.817 47.0947 166.725 45.9785C168.054 44.3509 167.877 42.1129 166.334 40.9744V40.9744Z" fill="#C6FF00"/>
<path d="M119.463 59.6294C122.12 61.1639 125.514 60.2618 127.042 57.6146C128.571 54.9673 127.655 51.5774 124.997 50.043C122.34 48.5086 118.946 49.4106 117.418 52.0579C115.889 54.7051 116.805 58.095 119.463 59.6294Z" fill="#32324D"/>
<path d="M124.315 51.228C124.402 51.5097 124.387 51.9246 123.673 52.3385C122.96 52.7524 120.559 52.4837 120.111 52.4505C119.66 52.4214 119.473 52.2088 119.405 52.0759C119.086 51.4296 119.737 50.7593 120.349 50.4743C121.669 49.8545 123.813 49.6667 124.315 51.228V51.228Z" fill="#32324D"/>
<path d="M120.842 56.4183C120.172 56.3234 118.005 55.9583 118.137 57.0863C118.214 57.7525 118.816 58.3643 119.459 58.7684C120.102 59.1726 120.849 59.3729 121.577 59.4576C125.035 59.8577 127.074 56.8402 126.674 56.2898C126.263 55.7226 125.518 56.1457 125.075 56.2528C123.732 56.5651 122.294 56.6214 120.842 56.4183V56.4183Z" fill="#212134"/>
<path d="M151.001 66.2178C153.829 63.0999 151.478 60.5536 151.478 60.5536C151.478 60.5536 149.793 59.2061 146.609 62.7128C143.427 66.2154 145.113 67.563 145.113 67.563C145.113 67.563 148.169 69.3328 151.001 66.2178V66.2178Z" fill="#32324D"/>
<path d="M151.597 62.2457C151.835 63.3851 150.398 64.0364 148.682 64.0309C148.175 64.0301 147.719 63.6565 147.75 63.4321C147.843 62.7921 148.272 62.2531 148.838 61.9132C150.523 60.8881 151.475 61.6691 151.597 62.2457V62.2457Z" fill="#32324D"/>
<path d="M97.417 35.4244C98.696 31.4177 102.084 32.1792 102.084 32.1792C102.084 32.1792 104.094 32.9653 102.649 37.4761C101.206 41.9828 99.1964 41.1967 99.1964 41.1967C99.1964 41.1967 96.1307 39.4323 97.417 35.4244V35.4244Z" fill="#32324D"/>
<path d="M102.265 33.8965C102.689 34.6916 102.105 35.0755 101.389 35.1631C100.571 35.2686 99.8617 35.4923 99.0939 35.7041C98.9769 35.7356 98.8452 35.7697 98.7147 35.7219C98.4636 35.6319 98.3928 35.3323 98.426 35.1038C98.5139 34.4609 98.9062 33.8727 99.4989 33.5764C101.187 32.729 102.101 33.5871 102.265 33.8965V33.8965Z" fill="#32324D"/>
<path d="M140.066 64.5073C138.789 65.933 136.581 66.1615 135.129 65.0147C133.677 63.8678 134.258 62.3593 135.535 60.9336C136.813 59.5079 138.296 58.7074 139.744 59.8514C141.196 60.9982 141.341 63.0858 140.066 64.5073V64.5073Z" fill="#32324D"/>
<path d="M105.699 44.6643C105.103 46.4837 106.009 48.5093 107.728 49.1938C109.448 49.8782 110.464 48.6207 111.06 46.8013C111.656 44.982 111.607 43.2972 109.893 42.6156C108.178 41.934 106.298 42.852 105.699 44.6643Z" fill="#32324D"/>
<path d="M108.621 44.91C108.065 45.0403 106.792 45.2138 106.781 44.5139C106.766 43.5584 107.974 42.8245 108.851 42.8574C109.728 42.8902 110.114 43.4876 110.024 43.8597C109.904 44.3299 109.118 44.7899 108.621 44.91V44.91Z" fill="#212134"/>
<path d="M136.135 62.1761C135.682 61.8318 136.44 60.3926 138.393 60.0449C139.326 59.8787 139.863 61.0254 139.147 61.7405C138.465 62.4201 136.963 62.808 136.135 62.1761V62.1761Z" fill="#212134"/>
<path d="M141.958 71.6813C138.284 71.2112 129.591 70.5905 117.056 63.3537C104.522 56.1169 99.6377 48.8989 97.3933 45.9517C97.3933 45.9517 96.0569 45.8132 95.7709 46.3086L93.5756 50.1109C93.2824 50.6188 93.3342 51.2707 93.7078 51.8332C95.3621 54.3076 100.853 61.0671 114.001 68.6576C127.148 76.2481 135.747 77.624 138.717 77.8195C139.048 77.8413 139.365 77.7839 139.638 77.6529C139.911 77.522 140.131 77.3221 140.275 77.0729L142.47 73.2705C142.746 72.7694 141.958 71.6813 141.958 71.6813V71.6813Z" fill="#C6FF00"/>
<path d="M104.586 57.0563C105.838 58.0821 106.201 58.4236 105.735 59.0135C104.81 60.1697 101.837 58.0513 100.211 56.5671C96.8505 53.4987 96.5847 52.1562 97.0447 51.3594C97.4666 50.6287 98.1886 50.9299 99.0498 51.8345C100.078 52.9179 101.637 54.6439 104.586 57.0563V57.0563Z" fill="#DCF587"/>
<path d="M141.477 72.5148C141.477 72.5148 131.055 71.6607 116.959 63.5225C102.863 55.3843 96.9121 46.7852 96.9121 46.7852" stroke="#F2994A" stroke-width="4.98728" stroke-miterlimit="10" stroke-linecap="round"/>
<path d="M112.949 28.158C116.483 28.1067 119.519 26.111 122.226 21.707C122.47 21.3081 122.677 21.2683 122.954 21.3947C123.395 21.6 123.281 21.9578 123.145 22.182C120.237 26.9439 117.759 29.5369 113.862 29.5548C113.671 29.5547 112.348 29.4844 112.12 28.8742C111.845 28.1536 112.723 28.1601 112.949 28.158V28.158Z" fill="#C6FF00"/>
<path d="M123.467 15.4983C123.815 14.7026 124.799 13.4765 127.499 14.2204C128.288 14.4394 128.551 14.9654 128.504 15.2299C128.387 15.8889 127.69 15.7727 127.387 15.6917C125.303 15.1377 124.78 15.8378 124.133 16.1027C123.486 16.3677 123.366 15.7425 123.467 15.4983V15.4983Z" fill="#C6FF00"/>
<path d="M138.842 41.7865C142.236 41.3957 144.949 40.3363 148.575 36.4518C148.898 36.1097 149.098 36.0822 149.351 36.2388C149.766 36.4895 149.597 36.8271 149.424 37.0243C145.784 41.2974 144.163 42.1777 139.667 43.1986C139.159 43.313 138.194 43.1247 137.923 42.5444C137.678 42.0227 138.417 41.8383 138.842 41.7865V41.7865Z" fill="#C6FF00"/>
<path d="M149.859 30.7849C150.206 29.9892 151.191 28.7631 153.891 29.507C154.68 29.726 154.943 30.252 154.895 30.5165C154.778 31.1756 154.081 31.0594 153.779 30.9784C151.694 30.4244 151.172 31.1244 150.525 31.3894C149.882 31.6572 149.758 31.0291 149.859 30.7849V30.7849Z" fill="#C6FF00"/>
<path d="M109.976 38.5792C105.491 33.0888 107.079 26.4365 107.602 23.4526C107.672 23.058 107.91 22.7826 108.358 22.9089C108.805 23.0352 108.916 23.3798 108.851 23.7772C108.471 25.9414 107.559 33.3746 111.812 38.0922C112.12 38.4357 112.539 39.0794 111.92 39.4101C111.515 39.6218 110.697 39.4635 109.976 38.5792V38.5792Z" fill="#DCF587"/>
<path d="M111.834 13.7854C111.834 13.1468 111.982 12.627 110.778 11.2327C110.474 10.8809 110.391 10.4423 110.686 10.1719C110.98 9.90156 111.518 9.88205 112.044 10.2955C113.752 11.6393 113.244 13.4544 113.006 14.0491C112.775 14.6204 111.839 14.4269 111.834 13.7854V13.7854Z" fill="#DCF587"/>
<path d="M142.229 57.201C149.227 58.3399 154.194 53.6388 156.516 51.6932C156.823 51.4355 156.942 51.0916 156.609 50.7672C156.276 50.4428 155.922 50.5192 155.611 50.7741C153.926 52.1852 147.945 56.6917 141.733 55.3677C141.281 55.2719 140.514 55.231 140.538 55.9325C140.557 56.3896 141.103 57.0185 142.229 57.201Z" fill="#DCF587"/>
<path d="M162.773 43.1955C163.326 42.8763 163.702 42.4878 165.511 42.8335C165.968 42.921 166.389 42.7734 166.476 42.3832C166.563 41.993 166.311 41.5171 165.69 41.2688C163.673 40.4617 162.354 41.8091 161.958 42.3125C161.579 42.7982 162.22 43.5147 162.773 43.1955V43.1955Z" fill="#DCF587"/>
<path d="M133.734 29.1381C134.334 28.796 135.27 28.3952 137.166 29.0935C137.895 29.3602 138.226 29.232 138.376 28.8344C138.694 28.0104 137.536 27.4137 136.859 27.1826C134.605 26.4094 133.288 27.6526 132.86 28.1986C132.45 28.7157 133.14 29.483 133.734 29.1381V29.1381Z" fill="#DCF587"/>
</g>
<defs>
<clipPath id="clip0_3459_30350">
<rect width="73.0242" height="61.0202" fill="white" transform="translate(111.44) rotate(30)"/>
</clipPath>
</defs>
</svg>
