<svg width="14" height="14" viewBox="0 0 14 14" fill="none" xmlns="http://www.w3.org/2000/svg">
<path d="M4.51969 0.667034C4.93969 0.679807 5.34635 0.753141 5.74035 0.887141H5.77969C5.80635 0.899807 5.82635 0.913807 5.83969 0.926474C5.98702 0.973807 6.12635 1.02714 6.25969 1.10047L6.51302 1.21381C6.61302 1.26714 6.73302 1.36647 6.79969 1.40714C6.86635 1.44647 6.93969 1.48714 6.99969 1.53314C7.74035 0.967141 8.63969 0.660474 9.56635 0.667034C9.98702 0.667034 10.407 0.726474 10.8064 0.860474C13.267 1.66047 14.1537 4.36047 13.413 6.72047C12.993 7.92647 12.3064 9.02714 11.407 9.92647C10.1197 11.1731 8.70702 12.2798 7.18635 13.2331L7.01969 13.3338L6.84635 13.2265C5.32035 12.2798 3.89969 11.1731 2.60035 9.91981C1.70702 9.02047 1.01969 7.92647 0.593019 6.72047C-0.160315 4.36047 0.726352 1.66047 3.21369 0.846474C3.40702 0.779807 3.60635 0.733141 3.80635 0.707141H3.88635C4.07369 0.679807 4.25969 0.667034 4.44635 0.667034H4.51969ZM10.4597 2.77381C10.1864 2.67981 9.88635 2.82714 9.78635 3.10714C9.69302 3.38714 9.83969 3.69381 10.1197 3.79314C10.547 3.95314 10.833 4.37381 10.833 4.83981V4.86047C10.8204 5.01314 10.8664 5.16047 10.9597 5.27381C11.053 5.38714 11.193 5.45314 11.3397 5.46714C11.613 5.45981 11.8464 5.24047 11.8664 4.95981V4.88047C11.8864 3.94647 11.3204 3.10047 10.4597 2.77381Z" fill="#EB5757"/>
</svg>
