<svg width="60" height="60" viewBox="0 0 60 60" fill="none" xmlns="http://www.w3.org/2000/svg">
<circle opacity="0.3" cx="30" cy="30" r="30" fill="#EEFAC3"/>
<rect x="24.6001" y="24.6" width="10.8" height="10.8" fill="#212134"/>
<path d="M30 18C36.6139 18 42 23.3835 42 30.0069C42 36.6165 36.6139 42 30 42C23.3861 42 18 36.6165 18 30.0069C18 23.3835 23.3861 18 30 18ZM28.6332 25.2359C28.3784 25.2359 28.1351 25.2938 27.9035 25.4096C27.6139 25.5716 27.3822 25.8263 27.2548 26.1274C27.1737 26.3357 27.0463 26.9609 27.0463 26.9725C26.9189 27.6556 26.8494 28.767 26.8494 29.9942C26.8494 31.1647 26.9189 32.2287 27.0232 32.9233C27.0347 32.9349 27.1622 33.7106 27.3012 33.9768C27.556 34.4631 28.0541 34.7641 28.5869 34.7641H28.6332C28.9807 34.7525 29.7104 34.4515 29.7104 34.4399C30.9382 33.9305 33.3591 32.3444 34.332 31.2909L34.4015 31.2214C34.529 31.0941 34.6911 30.8973 34.7259 30.8509C34.9112 30.6078 35.0039 30.3068 35.0039 30.0069C35.0039 29.67 34.8996 29.3575 34.7027 29.1028C34.6564 29.0564 34.4826 28.8596 34.3205 28.6975C33.3707 27.6787 30.8919 26.0116 29.5946 25.5022C29.3977 25.4223 28.8996 25.2475 28.6332 25.2359Z" fill="#C6FF00"/>
</svg>
