<svg width="864" height="253" viewBox="0 0 864 253" fill="none" xmlns="http://www.w3.org/2000/svg">
<path d="M213.718 73.8138L132.406 26.8998C131.387 26.3116 130.232 26.002 129.055 26.002C127.879 26.002 126.723 26.3116 125.704 26.8998L44.4008 73.8138C43.383 74.4014 42.5376 75.2464 41.9494 76.2639C41.3613 77.2814 41.051 78.4357 41.0498 79.611V173.497C41.0495 174.674 41.3591 175.83 41.9473 176.849C42.5356 177.868 43.3817 178.715 44.4008 179.303L125.704 226.217C126.723 226.805 127.879 227.115 129.055 227.115C130.232 227.115 131.387 226.805 132.406 226.217L213.718 179.303C214.737 178.715 215.583 177.868 216.172 176.849C216.76 175.83 217.069 174.674 217.069 173.497V79.611C217.068 78.4357 216.758 77.2814 216.169 76.2639C215.581 75.2464 214.736 74.4014 213.718 73.8138Z" fill="#C6FF00"/>
<path d="M55.3489 91.9851V166.452L73.7793 177.092V102.624L92.2014 113.264V134.543L110.607 123.92L110.632 102.624L73.7793 81.3457L55.3489 91.9851Z" fill="#212134"/>
<path d="M202.76 91.9851V166.452L184.338 177.092V102.624L165.908 113.264V134.543L147.511 123.92L147.486 102.624L184.338 81.3457L202.76 91.9851Z" fill="#212134"/>
<path d="M138.271 134.056V97.3038L165.917 81.3447V60.0742L129.056 81.3447L92.1947 60.0742V81.3447L119.84 97.3038V134.056C119.84 135.82 119.375 137.553 118.493 139.081C117.611 140.609 116.342 141.878 114.814 142.76L82.9795 161.132V193.042L101.41 182.402V161.123L129.056 145.164L156.701 161.123V182.402L175.132 193.042V161.123L143.297 142.752C141.771 141.87 140.503 140.603 139.62 139.076C138.738 137.55 138.273 135.819 138.271 134.056Z" fill="#212134"/>
<path d="M303.458 79.137C307.548 79.137 311.364 79.9593 314.906 81.6038C318.448 83.2061 321.505 85.3777 324.077 88.1185C326.692 90.8172 328.737 93.9586 330.213 97.5427C331.688 101.127 332.426 104.901 332.426 108.865C332.426 112.66 331.688 116.328 330.213 119.87C328.779 123.412 326.776 126.553 324.204 129.294C321.632 131.993 318.596 134.165 315.096 135.809C311.596 137.411 307.801 138.213 303.711 138.213H274.995V170.976C274.995 172.325 274.321 173 272.971 173H266.267C264.833 173 264.116 172.325 264.116 170.976V129.61C264.116 128.978 264.306 128.472 264.686 128.093C265.107 127.671 265.634 127.46 266.267 127.46H290.681L262.978 80.908C262.725 80.5285 262.598 80.1912 262.598 79.896C262.598 79.643 262.746 79.4533 263.041 79.3268C263.336 79.2003 263.652 79.137 263.99 79.137H303.458ZM281.826 89.8895L304.09 127.586C306.452 127.418 308.686 126.764 310.795 125.626C312.945 124.487 314.801 123.054 316.361 121.325C317.963 119.596 319.228 117.656 320.156 115.506C321.083 113.313 321.547 111.057 321.547 108.738C321.547 106.377 321.083 104.079 320.156 101.844C319.228 99.5668 317.942 97.5428 316.298 95.7717C314.653 94.0008 312.734 92.5882 310.542 91.534C308.349 90.4377 305.988 89.8895 303.458 89.8895H281.826ZM338.486 126.258C338.486 121.789 339.33 117.572 341.016 113.608C342.703 109.645 345.001 106.208 347.911 103.299C350.862 100.347 354.299 98.0277 358.22 96.341C362.142 94.6122 366.359 93.7478 370.87 93.7478C375.34 93.7478 379.557 94.6122 383.52 96.341C387.484 98.0277 390.921 100.347 393.83 103.299C396.782 106.208 399.101 109.645 400.788 113.608C402.517 117.572 403.381 121.789 403.381 126.258C403.381 130.77 402.517 135.008 400.788 138.971C399.101 142.893 396.782 146.33 393.83 149.281C390.921 152.191 387.484 154.489 383.52 156.176C379.557 157.862 375.34 158.706 370.87 158.706C366.359 158.706 362.142 157.862 358.22 156.176C354.299 154.489 350.862 152.191 347.911 149.281C345.001 146.33 342.703 142.893 341.016 138.971C339.33 135.008 338.486 130.77 338.486 126.258ZM348.733 126.258C348.733 129.294 349.302 132.162 350.441 134.86C351.621 137.559 353.224 139.92 355.248 141.944C357.272 143.968 359.612 145.571 362.268 146.751C364.967 147.932 367.834 148.522 370.87 148.522C373.906 148.522 376.774 147.932 379.472 146.751C382.171 145.571 384.532 143.968 386.556 141.944C388.623 139.92 390.246 137.559 391.427 134.86C392.607 132.162 393.198 129.294 393.198 126.258C393.198 123.222 392.607 120.355 391.427 117.656C390.246 114.958 388.623 112.596 386.556 110.572C384.532 108.506 382.171 106.883 379.472 105.702C376.774 104.521 373.906 103.931 370.87 103.931C367.834 103.931 364.967 104.521 362.268 105.702C359.612 106.883 357.272 108.506 355.248 110.572C353.224 112.596 351.621 114.958 350.441 117.656C349.302 120.355 348.733 123.222 348.733 126.258ZM371.187 118.795C370.133 118.795 369.142 119.006 368.214 119.427C367.328 119.807 366.548 120.334 365.874 121.009C365.199 121.683 364.651 122.484 364.229 123.412C363.85 124.298 363.66 125.267 363.66 126.322C363.66 127.334 363.85 128.303 364.229 129.231C364.651 130.117 365.199 130.897 365.874 131.571C366.548 132.204 367.328 132.731 368.214 133.152C369.142 133.532 370.133 133.722 371.187 133.722C372.241 133.722 373.211 133.532 374.096 133.152C375.024 132.773 375.825 132.267 376.5 131.634C377.174 130.96 377.701 130.18 378.081 129.294C378.503 128.367 378.713 127.376 378.713 126.322C378.713 125.267 378.503 124.298 378.081 123.412C377.701 122.484 377.174 121.683 376.5 121.009C375.825 120.334 375.024 119.807 374.096 119.427C373.211 119.006 372.241 118.795 371.187 118.795ZM462.45 146.055C463.04 146.055 463.546 146.287 463.968 146.751C464.431 147.173 464.663 147.742 464.663 148.459V154.974C464.663 155.606 464.452 156.133 464.031 156.555C463.651 156.977 463.124 157.188 462.45 157.188H421.464C419.988 157.188 419.25 156.45 419.25 154.974V97.353C419.25 96.7205 419.461 96.1934 419.882 95.7717C420.304 95.3501 420.873 95.1393 421.59 95.1393H427.978C428.569 95.1393 429.075 95.329 429.496 95.7085C429.96 96.088 430.192 96.6362 430.192 97.353V146.055H462.45ZM494.183 136.947V170.786C494.099 172.262 493.361 173 491.969 173H485.265C483.705 173 482.925 172.262 482.925 170.786V136.947L460.344 97.0367C459.965 96.4042 459.775 95.9404 459.775 95.6453C459.775 95.2657 460.091 95.076 460.724 95.076H470.97C471.561 95.076 472.046 95.2657 472.425 95.6453C472.847 95.9826 473.29 96.5097 473.753 97.2265L488.554 125.373L502.026 97.2898C502.87 95.9404 504.029 95.2025 505.505 95.076H515.119C515.751 95.076 516.068 95.2868 516.068 95.7085C516.068 96.0037 515.899 96.4253 515.562 96.9735L494.183 136.947ZM575.533 148.459C575.533 148.923 575.385 149.408 575.09 149.914C574.795 150.378 574.478 150.715 574.141 150.926C571.316 153.245 568.132 155.079 564.59 156.428C561.091 157.778 557.38 158.453 553.458 158.453C549.073 158.453 544.941 157.63 541.061 155.986C537.182 154.299 533.788 152.001 530.878 149.092C527.969 146.182 525.671 142.788 523.984 138.908C522.297 134.987 521.454 130.791 521.454 126.322C521.454 121.852 522.297 117.656 523.984 113.735C525.671 109.813 527.969 106.398 530.878 103.488C533.788 100.579 537.182 98.3017 541.061 96.6573C544.941 94.9706 549.073 94.1272 553.458 94.1272C557.296 94.1272 560.901 94.7387 564.274 95.9615C567.647 97.1422 570.705 98.8078 573.445 100.958C573.867 101.253 574.204 101.654 574.457 102.16C574.71 102.624 574.837 103.151 574.837 103.741V104.247C574.71 104.627 574.457 105.196 574.078 105.955C573.741 106.672 573.319 107.41 572.813 108.169C572.349 108.928 571.843 109.602 571.295 110.193C570.789 110.741 570.325 111.015 569.903 111.015C569.693 111.015 569.461 110.973 569.208 110.889C568.322 110.214 567.268 109.518 566.045 108.801C564.822 108.084 563.515 107.431 562.124 106.841C560.732 106.25 559.256 105.786 557.696 105.449C556.178 105.07 554.639 104.88 553.079 104.88C550.212 104.88 547.534 105.449 545.046 106.587C542.6 107.726 540.471 109.286 538.658 111.268C536.845 113.208 535.411 115.485 534.357 118.099C533.345 120.671 532.839 123.412 532.839 126.322C532.839 129.315 533.366 132.119 534.42 134.734C535.474 137.306 536.929 139.562 538.784 141.502C540.64 143.399 542.811 144.917 545.299 146.055C547.829 147.152 550.549 147.7 553.458 147.7C555.145 147.7 556.937 147.447 558.835 146.941C560.774 146.435 562.63 145.697 564.401 144.727V132.014C564.401 131.297 564.611 130.749 565.033 130.37C565.455 129.99 565.961 129.8 566.551 129.8H573.256C573.972 129.8 574.521 130.032 574.9 130.496C575.322 130.918 575.533 131.424 575.533 132.014V148.459ZM587.332 157.188C585.772 157.188 584.991 156.66 584.991 155.606C584.991 155.016 585.013 154.636 585.055 154.468C585.097 154.299 585.139 154.173 585.181 154.088L611.114 95.1393C611.282 94.8019 611.514 94.4435 611.809 94.064C612.105 93.6423 612.779 93.4315 613.833 93.4315H614.276C614.867 93.4315 615.33 93.5158 615.668 93.6845C616.005 93.811 616.258 93.9797 616.427 94.1905C616.595 94.4013 616.701 94.6333 616.743 94.8863C616.827 95.0971 616.912 95.2658 616.996 95.3922C619.104 100.284 620.917 104.458 622.435 107.916C623.996 111.373 625.408 114.452 626.673 117.15C627.938 119.849 629.119 122.379 630.215 124.74C631.354 127.059 632.534 129.568 633.757 132.267C635.022 134.966 636.393 138.044 637.868 141.502C639.386 144.959 641.157 149.155 643.181 154.088L643.118 154.025L643.245 154.657C643.287 154.868 643.329 155.058 643.371 155.227C643.413 155.395 643.434 155.522 643.434 155.606C643.434 156.66 642.675 157.188 641.157 157.188H587.332ZM600.424 146.055H628.001L613.96 113.798L600.424 146.055ZM683.987 157.188C682.173 157.188 681.267 156.513 681.267 155.164C681.267 154.531 681.351 153.983 681.52 153.519C681.731 153.013 681.878 152.655 681.963 152.444L687.276 139.667L676.08 112.09L658.813 154.911C658.476 155.627 658.033 156.197 657.485 156.618C656.979 156.998 656.304 157.188 655.461 157.188H650.085C648.271 157.188 647.365 156.513 647.365 155.164C647.365 154.531 647.449 153.983 647.618 153.519C647.829 153.013 647.976 152.655 648.061 152.444L670.894 97.4163C671.231 96.5729 671.59 95.9615 671.969 95.582C672.349 95.2025 673.086 95.0128 674.183 95.0128H677.851C678.61 95.0128 679.264 95.1814 679.812 95.5188C680.36 95.8139 680.845 96.4675 681.267 97.4795L692.968 125.815L704.796 97.4163C705.133 96.5729 705.492 95.9615 705.871 95.582C706.251 95.2025 706.988 95.0128 708.085 95.0128H711.753C712.512 95.0128 713.166 95.1814 713.714 95.5188C714.262 95.8139 714.747 96.4675 715.169 97.4795L738.255 153.203C738.339 153.287 738.424 153.582 738.508 154.088C738.635 154.552 738.698 154.889 738.698 155.1C738.698 156.492 737.812 157.188 736.041 157.188H730.728C729.084 157.188 727.966 156.45 727.376 154.974L709.982 112.09L698.787 139.794L704.353 153.203C704.437 153.287 704.522 153.582 704.606 154.088C704.733 154.552 704.796 154.889 704.796 155.1C704.796 156.492 703.91 157.188 702.139 157.188H683.987ZM790.355 120.439C790.946 120.439 791.452 120.65 791.873 121.072C792.295 121.493 792.506 122.063 792.506 122.78V129.421C792.506 130.053 792.316 130.58 791.937 131.002C791.557 131.424 791.03 131.634 790.355 131.634H760.248V145.929H792.506C793.096 145.929 793.602 146.161 794.024 146.625C794.488 147.046 794.72 147.616 794.72 148.333V154.974C794.72 155.606 794.509 156.133 794.087 156.555C793.708 156.977 793.18 157.188 792.506 157.188H751.077C749.896 157.145 749.306 156.407 749.306 154.974V97.353C749.306 95.8772 750.044 95.1393 751.52 95.1393H791.114C791.789 95.1393 792.316 95.3501 792.696 95.7717C793.075 96.1934 793.265 96.7205 793.265 97.353V103.994C793.265 104.711 793.054 105.28 792.632 105.702C792.211 106.124 791.705 106.335 791.114 106.335H760.248V120.439H790.355Z" fill="#C6FF00"/>
<path d="M310.232 220H305.304V198.048H315.896C317.091 198.048 318.189 198.336 319.192 198.912C320.216 199.467 321.027 200.245 321.624 201.248C322.221 202.251 322.52 203.371 322.52 204.608V204.8C322.52 206.016 322.221 207.147 321.624 208.192C321.048 209.216 320.248 210.027 319.224 210.624C318.221 211.221 317.112 211.52 315.896 211.52H310.232V220ZM310.232 207.648H314.744C315.555 207.648 316.227 207.381 316.76 206.848C317.293 206.293 317.56 205.653 317.56 204.928V204.736C317.56 203.989 317.293 203.349 316.76 202.816C316.248 202.261 315.576 201.984 314.744 201.984H310.232V207.648ZM341.013 212.288C341.013 213.931 340.661 215.36 339.957 216.576C339.274 217.792 338.325 218.72 337.109 219.36C335.893 220 334.528 220.32 333.013 220.32H332.501C330.986 220.32 329.621 220 328.405 219.36C327.189 218.72 326.229 217.792 325.525 216.576C324.842 215.36 324.501 213.931 324.501 212.288V211.36C324.501 209.717 324.842 208.288 325.525 207.072C326.229 205.856 327.189 204.928 328.405 204.288C329.621 203.648 330.986 203.328 332.501 203.328H333.013C334.528 203.328 335.893 203.648 337.109 204.288C338.325 204.928 339.274 205.856 339.957 207.072C340.661 208.288 341.013 209.717 341.013 211.36V212.288ZM336.277 210.528C336.277 209.227 335.946 208.235 335.285 207.552C334.645 206.869 333.802 206.528 332.757 206.528C331.712 206.528 330.858 206.869 330.197 207.552C329.557 208.235 329.237 209.227 329.237 210.528V213.12C329.237 214.421 329.557 215.413 330.197 216.096C330.858 216.779 331.712 217.12 332.757 217.12C333.802 217.12 334.645 216.779 335.285 216.096C335.946 215.413 336.277 214.421 336.277 213.12V210.528ZM355.399 210.88C354.247 214.933 353.372 217.973 352.775 220H347.559L342.567 203.648H347.399L350.215 213.76H350.407C350.962 211.797 351.388 210.325 351.687 209.344L353.319 203.648H357.991L360.839 213.76H361.031C362.311 209.28 363.26 205.909 363.879 203.648H368.423L363.431 220H358.279L355.591 210.88H355.399ZM385.905 213.888C385.905 215.317 385.564 216.523 384.881 217.504C384.198 218.464 383.292 219.179 382.161 219.648C381.052 220.096 379.836 220.32 378.513 220.32H378.001C376.486 220.32 375.121 220 373.905 219.36C372.689 218.72 371.729 217.803 371.025 216.608C370.342 215.392 370.001 213.952 370.001 212.288V211.36C370.001 209.717 370.353 208.288 371.057 207.072C371.761 205.856 372.71 204.928 373.905 204.288C375.121 203.648 376.486 203.328 378.001 203.328H378.513C379.836 203.328 381.062 203.605 382.193 204.16C383.324 204.693 384.23 205.483 384.913 206.528C385.596 207.552 385.937 208.768 385.937 210.176V212.608H374.737V213.376C374.737 214.443 375.046 215.339 375.665 216.064C376.305 216.768 377.169 217.12 378.257 217.12C379.238 217.12 380.006 216.853 380.561 216.32C381.137 215.765 381.425 214.955 381.425 213.888H385.905ZM378.033 206.528C377.094 206.528 376.326 206.859 375.729 207.52C375.153 208.181 374.822 209.024 374.737 210.048H381.201C381.201 208.96 380.945 208.107 380.433 207.488C379.942 206.848 379.142 206.528 378.033 206.528ZM398.609 209.248C398.609 208.587 398.427 208.021 398.065 207.552C397.702 207.061 397.126 206.816 396.337 206.816C395.59 206.816 395.014 207.115 394.609 207.712C394.225 208.288 394.033 209.013 394.033 209.888V220H389.424V203.648H392.881L393.457 206.048C393.542 205.813 393.755 205.483 394.097 205.056C394.459 204.629 394.971 204.235 395.633 203.872C396.315 203.509 397.115 203.328 398.033 203.328C399.505 203.328 400.635 203.787 401.425 204.704C402.235 205.621 402.641 206.837 402.641 208.352C402.641 208.672 402.619 208.992 402.577 209.312C402.555 209.632 402.534 209.856 402.513 209.984H398.609V209.248ZM420.249 213.888C420.249 215.317 419.907 216.523 419.225 217.504C418.542 218.464 417.635 219.179 416.505 219.648C415.395 220.096 414.179 220.32 412.857 220.32H412.345C410.83 220.32 409.465 220 408.249 219.36C407.033 218.72 406.073 217.803 405.369 216.608C404.686 215.392 404.345 213.952 404.345 212.288V211.36C404.345 209.717 404.697 208.288 405.401 207.072C406.105 205.856 407.054 204.928 408.249 204.288C409.465 203.648 410.83 203.328 412.345 203.328H412.857C414.179 203.328 415.406 203.605 416.537 204.16C417.667 204.693 418.574 205.483 419.257 206.528C419.939 207.552 420.281 208.768 420.281 210.176V212.608H409.081V213.376C409.081 214.443 409.39 215.339 410.009 216.064C410.649 216.768 411.513 217.12 412.601 217.12C413.582 217.12 414.35 216.853 414.905 216.32C415.481 215.765 415.769 214.955 415.769 213.888H420.249ZM412.377 206.528C411.438 206.528 410.67 206.859 410.073 207.52C409.497 208.181 409.166 209.024 409.081 210.048H415.545C415.545 208.96 415.289 208.107 414.777 207.488C414.286 206.848 413.486 206.528 412.377 206.528ZM434.424 217.952C433.23 219.531 431.694 220.32 429.816 220.32C428.536 220.32 427.384 220.011 426.36 219.392C425.336 218.773 424.526 217.835 423.928 216.576C423.331 215.317 423.032 213.76 423.032 211.904V211.552C423.032 209.781 423.31 208.277 423.864 207.04C424.419 205.803 425.166 204.875 426.104 204.256C427.064 203.637 428.142 203.328 429.336 203.328C430.36 203.328 431.256 203.541 432.024 203.968C432.814 204.395 433.443 204.917 433.912 205.536V196.96H438.584V220H434.904L434.424 217.952ZM427.768 213.248C427.768 214.485 428.056 215.445 428.632 216.128C429.208 216.789 429.944 217.12 430.84 217.12C431.736 217.12 432.472 216.789 433.048 216.128C433.624 215.445 433.912 214.485 433.912 213.248V210.592C433.912 209.333 433.624 208.373 433.048 207.712C432.472 207.051 431.736 206.72 430.84 206.72C429.944 206.72 429.208 207.051 428.632 207.712C428.056 208.373 427.768 209.333 427.768 210.592V213.248ZM454.503 205.536C454.972 204.917 455.591 204.395 456.359 203.968C457.148 203.541 458.055 203.328 459.079 203.328C460.273 203.328 461.34 203.637 462.279 204.256C463.239 204.875 463.996 205.803 464.551 207.04C465.105 208.277 465.383 209.781 465.383 211.552V211.904C465.383 213.76 465.084 215.317 464.487 216.576C463.889 217.835 463.079 218.773 462.055 219.392C461.031 220.011 459.879 220.32 458.599 220.32C457.425 220.32 456.38 220.085 455.463 219.616C454.545 219.125 453.777 218.421 453.159 217.504L452.615 218.336C452.401 218.699 452.199 219.019 452.007 219.296C451.815 219.552 451.655 219.787 451.527 220H449.831V196.96H454.503V205.536ZM460.647 210.592C460.647 209.333 460.359 208.373 459.783 207.712C459.207 207.051 458.471 206.72 457.575 206.72C456.679 206.72 455.943 207.051 455.367 207.712C454.791 208.373 454.503 209.333 454.503 210.592V213.248C454.503 214.485 454.791 215.445 455.367 216.128C455.943 216.789 456.679 217.12 457.575 217.12C458.471 217.12 459.207 216.789 459.783 216.128C460.359 215.445 460.647 214.485 460.647 213.248V210.592ZM477.886 219.104C477.097 221.237 476.126 222.912 474.974 224.128C473.822 225.365 472.435 225.984 470.814 225.984C469.683 225.984 468.766 225.824 468.062 225.504V222.208C468.318 222.315 468.649 222.411 469.054 222.496C469.459 222.603 469.843 222.656 470.206 222.656C471.571 222.656 472.542 221.664 473.118 219.68L466.942 203.648H471.902L475.518 213.92H475.71L479.102 203.648H483.71L477.886 219.104ZM586.673 202.016V220H581.777V202.016H575.537V198.048H592.881V202.016H586.673ZM610.405 213.888C610.405 215.317 610.064 216.523 609.381 217.504C608.698 218.464 607.792 219.179 606.661 219.648C605.552 220.096 604.336 220.32 603.013 220.32H602.501C600.986 220.32 599.621 220 598.405 219.36C597.189 218.72 596.229 217.803 595.525 216.608C594.842 215.392 594.501 213.952 594.501 212.288V211.36C594.501 209.717 594.853 208.288 595.557 207.072C596.261 205.856 597.21 204.928 598.405 204.288C599.621 203.648 600.986 203.328 602.501 203.328H603.013C604.336 203.328 605.562 203.605 606.693 204.16C607.824 204.693 608.73 205.483 609.413 206.528C610.096 207.552 610.437 208.768 610.437 210.176V212.608H599.237V213.376C599.237 214.443 599.546 215.339 600.165 216.064C600.805 216.768 601.669 217.12 602.757 217.12C603.738 217.12 604.506 216.853 605.061 216.32C605.637 215.765 605.925 214.955 605.925 213.888H610.405ZM602.533 206.528C601.594 206.528 600.826 206.859 600.229 207.52C599.653 208.181 599.322 209.024 599.237 210.048H605.701C605.701 208.96 605.445 208.107 604.933 207.488C604.442 206.848 603.642 206.528 602.533 206.528ZM617.925 206.048C619.269 204.235 621.007 203.328 623.141 203.328C624.805 203.328 626.17 203.776 627.237 204.672C628.325 205.568 628.869 206.869 628.869 208.576V220H624.197V209.6C624.197 208.768 623.951 208.085 623.461 207.552C622.991 206.997 622.383 206.72 621.637 206.72C620.805 206.72 620.09 207.04 619.493 207.68C618.895 208.299 618.597 209.056 618.597 209.952V220H613.924V203.648H617.413L617.925 206.048ZM637.018 213.376C637.018 214.443 637.296 215.339 637.85 216.064C638.405 216.768 639.152 217.12 640.09 217.12C641.072 217.12 641.84 216.821 642.394 216.224C642.97 215.605 643.258 214.699 643.258 213.504H647.674C647.674 215.019 647.344 216.288 646.682 217.312C646.042 218.336 645.189 219.093 644.122 219.584C643.056 220.075 641.882 220.32 640.602 220.32H640.09C637.701 220.32 635.802 219.616 634.394 218.208C632.986 216.779 632.282 214.805 632.282 212.288V211.36C632.282 209.696 632.613 208.267 633.274 207.072C633.957 205.856 634.885 204.928 636.058 204.288C637.232 203.648 638.576 203.328 640.09 203.328H640.602C641.861 203.328 643.024 203.605 644.09 204.16C645.178 204.693 646.042 205.483 646.682 206.528C647.344 207.552 647.674 208.768 647.674 210.176H643.034C643.034 209.067 642.789 208.181 642.298 207.52C641.808 206.859 641.082 206.528 640.122 206.528C639.162 206.528 638.405 206.912 637.85 207.68C637.296 208.427 637.018 209.376 637.018 210.528V213.376ZM666.343 213.888C666.343 215.317 666.001 216.523 665.319 217.504C664.636 218.464 663.729 219.179 662.599 219.648C661.489 220.096 660.273 220.32 658.951 220.32H658.439C656.924 220.32 655.559 220 654.343 219.36C653.127 218.72 652.167 217.803 651.463 216.608C650.78 215.392 650.439 213.952 650.439 212.288V211.36C650.439 209.717 650.791 208.288 651.495 207.072C652.199 205.856 653.148 204.928 654.343 204.288C655.559 203.648 656.924 203.328 658.439 203.328H658.951C660.273 203.328 661.5 203.605 662.631 204.16C663.761 204.693 664.668 205.483 665.351 206.528C666.033 207.552 666.375 208.768 666.375 210.176V212.608H655.175V213.376C655.175 214.443 655.484 215.339 656.103 216.064C656.743 216.768 657.607 217.12 658.695 217.12C659.676 217.12 660.444 216.853 660.999 216.32C661.575 215.765 661.863 214.955 661.863 213.888H666.343ZM658.47 206.528C657.532 206.528 656.764 206.859 656.167 207.52C655.591 208.181 655.26 209.024 655.175 210.048H661.639C661.639 208.96 661.383 208.107 660.871 207.488C660.38 206.848 659.58 206.528 658.47 206.528ZM673.862 206.048C675.206 204.235 676.945 203.328 679.078 203.328C680.742 203.328 682.107 203.776 683.174 204.672C684.262 205.568 684.806 206.869 684.806 208.576V220H680.134V209.6C680.134 208.768 679.889 208.085 679.398 207.552C678.929 206.997 678.321 206.72 677.574 206.72C676.742 206.72 676.027 207.04 675.43 207.68C674.833 208.299 674.534 209.056 674.534 209.952V220H669.862V203.648H673.35L673.862 206.048ZM697.82 219.712C697.393 219.883 696.828 220.021 696.124 220.128C695.441 220.256 694.833 220.32 694.3 220.32C692.657 220.32 691.42 219.968 690.588 219.264C689.756 218.56 689.34 217.387 689.34 215.744V206.848H687.548V203.648H689.5L691.132 198.432H694.012V203.648H697.82V206.848H694.012V214.944C694.012 215.797 694.172 216.373 694.492 216.672C694.833 216.971 695.281 217.12 695.836 217.12C696.092 217.12 696.422 217.077 696.828 216.992C697.233 216.907 697.564 216.811 697.82 216.704V219.712ZM712.47 211.296C712.47 212.917 712.907 214.176 713.782 215.072C714.657 215.947 715.766 216.384 717.11 216.384C718.625 216.384 719.745 215.979 720.47 215.168C721.195 214.336 721.558 213.067 721.558 211.36H726.07C726.07 213.237 725.686 214.859 724.918 216.224C724.171 217.568 723.137 218.592 721.814 219.296C720.491 219.979 718.998 220.32 717.334 220.32H716.886C715.051 220.32 713.409 219.947 711.958 219.2C710.507 218.453 709.366 217.355 708.534 215.904C707.702 214.432 707.286 212.661 707.286 210.592V207.456C707.286 205.451 707.702 203.712 708.534 202.24C709.366 200.768 710.497 199.648 711.926 198.88C713.377 198.112 714.987 197.728 716.758 197.728H717.206C718.913 197.728 720.427 198.069 721.75 198.752C723.094 199.413 724.15 200.427 724.918 201.792C725.686 203.136 726.07 204.789 726.07 206.752H721.366C721.366 205.088 720.993 203.829 720.246 202.976C719.521 202.101 718.465 201.664 717.078 201.664C715.734 201.664 714.625 202.112 713.75 203.008C712.897 203.883 712.47 205.131 712.47 206.752V211.296ZM729.706 220V196.96H734.378V220H729.706ZM754.419 212.288C754.419 213.931 754.067 215.36 753.363 216.576C752.681 217.792 751.731 218.72 750.515 219.36C749.299 220 747.934 220.32 746.419 220.32H745.907C744.393 220.32 743.027 220 741.811 219.36C740.595 218.72 739.635 217.792 738.931 216.576C738.249 215.36 737.907 213.931 737.907 212.288V211.36C737.907 209.717 738.249 208.288 738.931 207.072C739.635 205.856 740.595 204.928 741.811 204.288C743.027 203.648 744.393 203.328 745.907 203.328H746.419C747.934 203.328 749.299 203.648 750.515 204.288C751.731 204.928 752.681 205.856 753.363 207.072C754.067 208.288 754.419 209.717 754.419 211.36V212.288ZM749.683 210.528C749.683 209.227 749.353 208.235 748.691 207.552C748.051 206.869 747.209 206.528 746.163 206.528C745.118 206.528 744.265 206.869 743.603 207.552C742.963 208.235 742.643 209.227 742.643 210.528V213.12C742.643 214.421 742.963 215.413 743.603 216.096C744.265 216.779 745.118 217.12 746.163 217.12C747.209 217.12 748.051 216.779 748.691 216.096C749.353 215.413 749.683 214.421 749.683 213.12V210.528ZM772.773 216.16C772.773 216.48 772.869 216.725 773.061 216.896C773.253 217.045 773.467 217.12 773.701 217.12C773.915 217.12 774.149 217.077 774.405 216.992C774.661 216.907 774.864 216.832 775.013 216.768V219.648C774.224 220.096 773.285 220.32 772.197 220.32C770.064 220.32 768.827 219.541 768.485 217.984C767.141 219.541 765.499 220.32 763.557 220.32C761.893 220.32 760.517 219.872 759.429 218.976C758.363 218.08 757.829 216.779 757.829 215.072V203.648H762.501V214.048C762.501 214.88 762.736 215.573 763.205 216.128C763.696 216.661 764.315 216.928 765.061 216.928C765.893 216.928 766.608 216.619 767.205 216C767.803 215.36 768.101 214.592 768.101 213.696V203.648H772.773V216.16ZM788.143 217.952C786.948 219.531 785.412 220.32 783.535 220.32C782.255 220.32 781.103 220.011 780.079 219.392C779.055 218.773 778.244 217.835 777.647 216.576C777.05 215.317 776.751 213.76 776.751 211.904V211.552C776.751 209.781 777.028 208.277 777.583 207.04C778.138 205.803 778.884 204.875 779.823 204.256C780.783 203.637 781.86 203.328 783.055 203.328C784.079 203.328 784.975 203.541 785.743 203.968C786.532 204.395 787.162 204.917 787.631 205.536V196.96H792.303V220H788.623L788.143 217.952ZM781.487 213.248C781.487 214.485 781.775 215.445 782.351 216.128C782.927 216.789 783.663 217.12 784.559 217.12C785.455 217.12 786.191 216.789 786.767 216.128C787.343 215.445 787.631 214.485 787.631 213.248V210.592C787.631 209.333 787.343 208.373 786.767 207.712C786.191 207.051 785.455 206.72 784.559 206.72C783.663 206.72 782.927 207.051 782.351 207.712C781.775 208.373 781.487 209.333 781.487 210.592V213.248Z" fill="#FFFEFE"/>
<path d="M563.58 194.519C560.455 191.085 556.132 188.889 551.289 188.889C547.122 188.889 543.529 190.465 540.352 193.224C538.946 194.407 537.54 195.814 535.717 197.729C534.779 198.63 508.792 225.994 508.792 225.994C510.198 226.219 512.02 226.219 513.739 226.276C515.301 226.276 545.247 226.276 546.497 226.276C548.997 226.276 550.664 226.276 552.434 226.163C556.497 225.825 560.299 224.249 563.371 220.983C570.194 213.72 570.298 201.895 563.58 194.519ZM558.58 215.747C557.226 217.154 554.882 218.787 551.028 218.956C549.205 219.012 547.122 219.012 546.133 219.012H525.249C532.8 211.073 539.467 204.091 540.196 203.303C540.873 202.571 542.435 200.994 543.789 199.699C546.758 196.884 549.362 196.265 551.237 196.321C554.153 196.377 556.809 197.672 558.736 199.699C562.798 204.148 562.746 211.355 558.58 215.747Z" fill="#00A1FF"/>
<path d="M521.603 192.774C518.53 190.296 515.093 188.889 511.239 188.889C506.396 188.889 502.073 191.028 498.948 194.519C492.282 201.895 492.334 213.72 499.209 220.983C501.969 223.911 505.302 225.487 508.843 226.05L515.51 219.012C514.416 219.012 512.906 218.956 511.5 218.956C507.594 218.843 505.25 217.21 503.948 215.747C499.782 211.355 499.677 204.148 503.74 199.699C505.614 197.616 508.323 196.321 511.239 196.321C513.062 196.321 515.562 196.884 518.374 199.418C519.728 200.6 522.697 203.472 523.999 204.711C524.051 204.767 524.155 204.767 524.207 204.711L528.842 199.812C528.894 199.756 528.894 199.587 528.842 199.587C526.603 197.278 523.478 194.294 521.603 192.774Z" fill="#00C4D6"/>
<path d="M553.111 184.723C549.882 174.982 541.289 168 531.238 168C519.624 168 510.041 177.178 508.323 189.115C509.26 188.946 510.197 188.889 511.187 188.889C512.593 188.889 513.895 189.058 515.093 189.396C515.145 189.396 515.145 189.396 515.145 189.396C516.707 181.344 523.322 175.32 531.186 175.32C537.748 175.32 543.476 179.599 546.08 185.624C546.132 185.68 546.185 185.736 546.289 185.736C548.268 185.173 550.559 184.835 552.851 185.004C553.059 185.061 553.111 184.948 553.111 184.723Z" fill="#006EFF"/>
</svg>
