<svg width="316" height="66" viewBox="0 0 316 66" fill="none" xmlns="http://www.w3.org/2000/svg">
<path d="M2.29405 63.958C2.29405 63.958 20.8365 36.2039 28.9869 37.0676C37.1374 37.9312 33.353 47.9152 41.0084 48.0347C48.6637 48.1543 51.5888 37.9962 56.6538 37.7228C61.7188 37.4495 62.5514 50.0007 70.6765 50.1035C78.8015 50.2063 83.8465 21.0857 92.5173 22.0045C101.188 22.9233 101.701 42.8494 112.117 39.3827C122.533 35.9161 137.161 1.98493 143.577 2.66483C149.994 3.34473 137.391 45.7004 140.671 48.902C143.951 52.1037 153.764 36.3913 160.396 35.9082C167.027 35.4251 162.22 51.1854 169.894 51.9987C177.569 52.8119 182.384 40.6098 188.201 39.9913C194.018 39.3729 205.91 47.6624 214.419 46.2503C222.928 44.8383 241.428 9.79203 247.05 9.53389C252.672 9.27576 244.664 50.7818 254.098 50.4548C263.531 50.1279 274.482 31.7373 280.212 33.1781C285.943 34.6189 278.014 55.6919 287.501 56.6971C296.988 57.7024 299.424 47.5489 304.867 46.3985C310.31 45.2481 314.075 60.783 314.075 60.783" stroke="#212134" stroke-width="3.48475" stroke-linecap="round"/>
</svg>
