<svg width="12" height="12" viewBox="0 0 12 12" fill="none" xmlns="http://www.w3.org/2000/svg">
<path d="M6.08724 0.468491C9.03657 0.468491 11.4206 2.85782 11.4206 5.80182C11.4206 8.75116 9.03657 11.1352 6.08724 11.1352C3.14324 11.1352 0.753906 8.75116 0.753906 5.80182C0.753906 2.85782 3.14324 0.468491 6.08724 0.468491ZM5.90057 3.09782C5.68191 3.09782 5.50057 3.27382 5.50057 3.49782V6.19116C5.50057 6.32982 5.57524 6.45782 5.69791 6.53249L7.78857 7.78049C7.85257 7.81783 7.9219 7.83916 7.99657 7.83916C8.1299 7.83916 8.26324 7.76983 8.33791 7.64183C8.44991 7.45516 8.39124 7.20983 8.19924 7.09249L6.30057 5.96182V3.49782C6.30057 3.27382 6.11924 3.09782 5.90057 3.09782Z" fill="#F2994A"/>
</svg>
