<svg width="32" height="32" viewBox="0 0 32 32" fill="none" xmlns="http://www.w3.org/2000/svg">
<rect opacity="0.15" width="32" height="32" rx="16" fill="#666687"/>
<path d="M18.5875 9.83523C18.5575 10.0227 18.5425 10.2102 18.5425 10.3977C18.5425 12.0852 19.9075 13.4495 21.5875 13.4495C21.775 13.4495 21.955 13.4277 22.1425 13.3977V19.4495C22.1425 21.9927 20.6425 23.5002 18.0925 23.5002H12.5507C10 23.5002 8.5 21.9927 8.5 19.4495V13.9002C8.5 11.3502 10 9.83523 12.5507 9.83523H18.5875ZM18.7382 14.3952C18.535 14.3727 18.3332 14.4627 18.2125 14.6277L16.3982 16.9752L14.32 15.3402C14.1925 15.2427 14.0425 15.2045 13.8925 15.2202C13.7432 15.2427 13.6082 15.3245 13.5175 15.4445L11.2982 18.3327L11.2525 18.4002C11.125 18.6395 11.185 18.947 11.41 19.1127C11.515 19.1802 11.6275 19.2252 11.755 19.2252C11.9282 19.2327 12.0925 19.142 12.1975 19.0002L14.08 16.577L16.2175 18.1827L16.285 18.227C16.525 18.3545 16.825 18.2952 16.9975 18.0695L19.165 15.2727L19.135 15.2877C19.255 15.1227 19.2775 14.9127 19.195 14.7252C19.1132 14.5377 18.9325 14.4102 18.7382 14.3952ZM21.6926 8.5C22.6901 8.5 23.5001 9.31 23.5001 10.3075C23.5001 11.305 22.6901 12.115 21.6926 12.115C20.6951 12.115 19.8851 11.305 19.8851 10.3075C19.8851 9.31 20.6951 8.5 21.6926 8.5Z" fill="#666687"/>
</svg>
