<svg width="32" height="32" viewBox="0 0 32 32" fill="none" xmlns="http://www.w3.org/2000/svg">
<rect opacity="0.12" width="32" height="32" rx="16" fill="#666687"/>
<path d="M20.417 16.6911C21.4273 16.6911 22.3422 16.7486 22.9049 16.8555C22.9137 16.8555 23.4286 16.9614 23.6003 17.0297C23.848 17.1366 24.0577 17.3296 24.1913 17.5711C24.2868 17.7641 24.3337 17.968 24.3337 18.1808C24.3249 18.4025 24.1815 18.8192 24.1142 18.9835C23.6958 20.0664 22.3226 22.1361 21.4849 22.9299C21.3513 23.0645 21.1894 23.21 21.1513 23.2486C20.9407 23.4129 20.6842 23.5 20.4082 23.5C20.1595 23.5 19.9118 23.4228 19.7118 23.2674C19.608 23.1932 19.4564 23.0454 19.3871 22.9762L19.35 22.9388C18.482 22.1271 17.1771 20.105 16.7577 19.0795C16.7488 19.0795 16.5399 18.568 16.4976 18.2594L16.4905 18.1808V18.1422C16.4905 17.6968 16.7382 17.2811 17.1391 17.0683C17.3585 16.9525 17.9963 16.8456 18.0061 16.8357C18.5776 16.7486 19.4544 16.6911 20.417 16.6911ZM11.5883 16.7421C11.9876 16.7421 12.3164 17.0468 12.3613 17.4398L12.3665 17.532L12.5801 21.3476C12.5801 21.9038 12.1364 22.3542 11.5883 22.3542C11.0744 22.3542 10.6514 21.9584 10.6006 21.4505L10.5954 21.3476L10.81 17.532C10.81 17.0955 11.1582 16.7421 11.5883 16.7421ZM11.5934 8.5C11.8402 8.5 12.0879 8.5772 12.2888 8.73161C12.3754 8.79409 12.4951 8.90722 12.5727 8.98328L12.6506 9.06121C13.5176 9.87382 14.8235 11.8949 15.2429 12.9204C15.251 12.9204 15.4606 13.4327 15.503 13.7415L15.5101 13.8201V13.8587C15.5101 14.3031 15.2614 14.7188 14.8616 14.9316C14.6421 15.0484 14.0043 15.1543 13.9946 15.1642C13.423 15.2513 12.5463 15.3087 11.5837 15.3087C10.5733 15.3087 9.6585 15.2513 9.09577 15.1444C9.08601 15.1444 8.57204 15.0385 8.4004 14.9702C8.15268 14.8643 7.94299 14.6703 7.80938 14.4288C7.71381 14.2358 7.66699 14.0319 7.66699 13.8201C7.67577 13.5974 7.81913 13.1817 7.88545 13.0174C8.30482 11.9336 9.67703 9.86392 10.5158 9.0711C10.6494 8.9355 10.8113 8.79001 10.8493 8.7514C11.059 8.5871 11.3165 8.5 11.5934 8.5ZM20.4126 9.64583C20.9264 9.64583 21.3486 10.0417 21.3993 10.5495L21.4044 10.6525L21.1908 14.4682C21.1908 14.9047 20.8427 15.258 20.4126 15.258C20.0132 15.258 19.6845 14.9533 19.6395 14.5603L19.6343 14.4682L19.4198 10.6525C19.4198 10.0962 19.8645 9.64583 20.4126 9.64583Z" fill="#666687"/>
</svg>
