<svg width="32" height="32" viewBox="0 0 32 32" fill="none" xmlns="http://www.w3.org/2000/svg">
<rect opacity="0.15" width="32" height="32" rx="16" fill="#666687"/>
<path d="M17.5171 24.3334H14.4838C14.2938 24.3334 14.1094 24.2685 13.9613 24.1494C13.8132 24.0302 13.7103 23.8641 13.6696 23.6784L13.3305 22.1084C12.878 21.9102 12.449 21.6623 12.0513 21.3692L10.5205 21.8567C10.3393 21.9145 10.1438 21.9086 9.96641 21.8399C9.78905 21.7713 9.64052 21.644 9.54547 21.4792L8.02547 18.8534C7.93143 18.6885 7.89613 18.4966 7.92534 18.309C7.95456 18.1215 8.04656 17.9494 8.18631 17.8209L9.37381 16.7376C9.3198 16.2468 9.3198 15.7517 9.37381 15.2609L8.18631 14.1801C8.04637 14.0516 7.95424 13.8793 7.92501 13.6916C7.89579 13.5038 7.93121 13.3117 8.02547 13.1467L9.54214 10.5192C9.63718 10.3545 9.78572 10.2272 9.96307 10.1586C10.1404 10.0899 10.3359 10.084 10.5171 10.1417L12.048 10.6292C12.2513 10.4792 12.463 10.3392 12.6813 10.2126C12.8921 10.0942 13.1088 9.98675 13.3305 9.89091L13.6705 8.32258C13.711 8.13691 13.8137 7.97065 13.9616 7.85137C14.1095 7.73209 14.2938 7.66695 14.4838 7.66675H17.5171C17.7072 7.66695 17.8914 7.73209 18.0394 7.85137C18.1873 7.97065 18.29 8.13691 18.3305 8.32258L18.6738 9.89175C18.9071 9.99508 19.1355 10.1109 19.3563 10.2401C19.5621 10.3592 19.7613 10.4901 19.953 10.6309L21.4846 10.1434C21.6657 10.0858 21.861 10.0919 22.0382 10.1605C22.2154 10.2292 22.3638 10.3564 22.4588 10.5209L23.9755 13.1484C24.1688 13.4876 24.1021 13.9167 23.8146 14.1809L22.6271 15.2642C22.6811 15.755 22.6811 16.2502 22.6271 16.7409L23.8146 17.8242C24.1021 18.0892 24.1688 18.5176 23.9755 18.8567L22.4588 21.4842C22.3638 21.649 22.2152 21.7763 22.0379 21.8449C21.8605 21.9136 21.665 21.9195 21.4838 21.8617L19.953 21.3742C19.5556 21.667 19.1268 21.9147 18.6746 22.1126L18.3305 23.6784C18.2898 23.8639 18.187 24.03 18.0391 24.1491C17.8912 24.2682 17.7071 24.3333 17.5171 24.3334V24.3334ZM15.9971 12.6667C15.1131 12.6667 14.2652 13.0179 13.6401 13.6431C13.015 14.2682 12.6638 15.116 12.6638 16.0001C12.6638 16.8841 13.015 17.732 13.6401 18.3571C14.2652 18.9822 15.1131 19.3334 15.9971 19.3334C16.8812 19.3334 17.729 18.9822 18.3542 18.3571C18.9793 17.732 19.3305 16.8841 19.3305 16.0001C19.3305 15.116 18.9793 14.2682 18.3542 13.6431C17.729 13.0179 16.8812 12.6667 15.9971 12.6667V12.6667Z" fill="#666687"/>
</svg>
